<?xml version="1.0" encoding="UTF-8"?>
<svg width="1258px" height="721px" viewBox="0 0 1258 721" version="1.1" xmlns="http://www.w3.org/2000/svg" xmlns:xlink="http://www.w3.org/1999/xlink">
    <!-- Generator: Sketch 60.1 (88133) - https://sketch.com -->
    <title>办公电脑</title>
    <desc>Created with Sketch.</desc>
    <defs>
        <path d="M139.93725,33.7559772 C256.08879,11.2519924 351.209776,6.39488462e-14 425.30021,6.39488462e-14 C499.390644,6.39488462e-14 611.169238,11.2519924 760.635993,33.7559772 L886.215451,162.201753 C893.650368,168.629475 898.071132,177.632602 899.477743,189.211136 L0.60363888,189.211136 C4.60525415,175.055588 9.33964209,166.052461 14.8068027,162.201753 C20.2739633,158.351046 61.9841123,115.535787 139.93725,33.7559772 Z" id="path-1"></path>
        <path d="M273.578305,2.84217094e-14 L12.3273081,2.84217094e-14 C4.11299108,2.32031405 0.00583255058,8.88305312 0.00583255058,19.6882172 C0.00583255058,30.4933813 0.00583255058,129.739243 0.00583255058,317.425801 C-0.176816548,327.729405 3.93034198,332.881208 12.3273081,332.881208 C20.7242743,332.881208 201.622286,331.750696 555.021342,329.489671 C565.508988,326.55723 570.752811,320.143517 570.752811,310.248531 C570.752811,300.353546 569.221107,201.920916 566.157699,14.9506423 C567.14433,4.98354743 564.480426,2.84217094e-14 558.165986,2.84217094e-14 C551.851545,2.84217094e-14 456.988985,2.84217094e-14 273.578305,2.84217094e-14 Z" id="path-3"></path>
        <path d="M20.3778552,0.405890468 L251.264545,0.405890468 C253.435427,0.321731459 255.506081,1.4388354 257.476506,3.75720229 C267.219879,19.7988604 274.680434,32.3548363 275.529067,34.2562589 C276.094822,35.5238739 275.179885,36.7902313 272.784258,38.0553309 L2.97752136,38.0553309 L0.44037112,33.9380039 C9.20019732,15.4006829 14.0629777,5.17766708 15.0287122,3.26895643 C15.9944468,1.36024579 17.7774944,0.405890468 20.3778552,0.405890468 Z" id="path-5"></path>
        <path d="M0.0338819536,84.4183654 C35.791902,84.4183654 89.7806081,84.4183654 162,84.4183654 C159.943569,53.3626703 145.488381,37.8348228 118.634437,37.8348228 C108.401928,12.4311873 91.9924509,0.164826846 69.406006,1.03574138 C46.8195611,1.90665591 32.0937314,18.0945818 25.2285168,49.5995191 C7.79313941,53.8654168 -0.605072226,65.4716989 0.0338819536,84.4183654 Z" id="path-7"></path>
        <path d="M0,10.0372741 C58.7900173,10.2354985 92.2062654,7.15742426 100.248744,0.803051318 C112.521349,67.9631249 126.465051,112.630069 142.079849,134.803882 C127.619099,141.671552 110.513241,143.974641 90.7622742,141.71315 C61.1358242,138.320913 48.8409827,130.623226 26.8570766,105.32556 C12.2011393,88.46045 3.2487804,56.6976879 0,10.0372741 Z" id="path-9"></path>
        <path d="M15.1605717,92.5681709 C67.8271522,42.8524621 98.608472,13.8151246 107.504531,5.45615816 C120.848619,-7.08229147 141.892196,3.51259122 124.057944,21.7796219 C112.168443,33.9576424 81.0602365,63.0519303 30.7333246,109.062486 L0.00129744564,122.904415 L15.1605717,92.5681709 Z" id="path-11"></path>
        <path d="M35.9792711,5.89334445 L0,76.4218021 C37.5125724,65.5577535 65.6525284,65.5577535 84.4198679,76.4218021 C131.180013,72.8825031 162.468417,81.6726697 178.285079,102.792302 L221,20.1796194 L162.073828,0 L35.9792711,5.89334445 Z" id="path-13"></path>
    </defs>
    <g id="页面-1" stroke="none" stroke-width="1" fill="none" fill-rule="evenodd">
        <g id="画板" transform="translate(-1619.000000, -784.000000)">
            <g id="办公电脑" transform="translate(1619.000000, 784.000000)">
                <g id="编组-3" transform="translate(211.000000, 27.000000)">
                    <g id="矩形">
                        <g id="蒙版" fill="#6871FF">
                            <g transform="translate(0.348159, 0.000000)" id="矩形">
                                <rect x="0" y="0" width="695.43018" height="409"></rect>
                            </g>
                        </g>
                        <rect fill="#B1B5FF" x="-25.1171171" y="-12.3471698" width="742.524775" height="37.0415094"></rect>
                        <ellipse id="椭圆形" fill="#FF7272" cx="18.8378378" cy="13.890566" rx="7.8490991" ry="7.71698113"></ellipse>
                        <ellipse id="椭圆形备份-94" fill="#FFDE30" cx="43.954955" cy="13.890566" rx="7.8490991" ry="7.71698113"></ellipse>
                        <ellipse id="椭圆形备份-95" fill="#8BDD7A" cx="69.0720721" cy="13.890566" rx="7.8490991" ry="7.71698113"></ellipse>
                    </g>
                    <rect id="矩形" fill="#5058D0" x="102.038288" y="114.211321" width="572.984234" height="263.920755"></rect>
                    <rect id="矩形" fill="#6871FF" x="659.324324" y="4.63018868" width="18.8378378" height="13.890566"></rect>
                    <rect id="矩形备份-3" fill="#D4D6FF" x="656.184685" y="7.71698113" width="18.8378378" height="13.890566"></rect>
                </g>
                <ellipse id="椭圆形-2" fill="#5D4DDA" cx="629" cy="607.5" rx="629" ry="113.5"></ellipse>
                <g id="表格" transform="translate(63.000000, 235.000000)">
                    <rect id="矩形" fill="#74F5FF" x="0" y="0" width="409" height="242"></rect>
                    <path d="M15.3615023,221.364341 L15.3615023,16.8837209 L309.150235,16.8837209 L309.150235,221.364341 L15.3615023,221.364341 Z M79.6875023,205.074721 L62.0025023,205.074721 L62.0025023,219.487721 L79.6875023,219.487721 L79.6875023,205.074721 Z M164.175502,205.074721 L146.490502,205.074721 L146.490502,219.487721 L164.175502,219.487721 L164.175502,205.074721 Z M100.809502,205.074721 L83.1245023,205.074721 L83.1245023,219.487721 L100.809502,219.487721 L100.809502,205.074721 Z M185.297502,205.074721 L167.612502,205.074721 L167.612502,219.487721 L185.297502,219.487721 L185.297502,205.074721 Z M36.7235023,205.074721 L17.2816901,205.075117 L17.2816901,219.488372 L36.7235023,219.487721 L36.7235023,205.074721 Z M206.419502,205.074721 L188.734502,205.074721 L188.734502,219.487721 L206.419502,219.487721 L206.419502,205.074721 Z M121.931502,205.074721 L104.246502,205.074721 L104.246502,219.487721 L121.931502,219.487721 L121.931502,205.074721 Z M227.541502,205.074721 L209.856502,205.074721 L209.856502,219.487721 L227.541502,219.487721 L227.541502,205.074721 Z M58.5655023,205.074721 L40.1605023,205.074721 L40.1605023,219.487721 L58.5655023,219.487721 L58.5655023,205.074721 Z M248.663502,205.074721 L230.978502,205.074721 L230.978502,219.487721 L248.663502,219.487721 L248.663502,205.074721 Z M143.053502,205.074721 L125.368502,205.074721 L125.368502,219.487721 L143.053502,219.487721 L143.053502,205.074721 Z M307.230047,18.7596899 L252.100502,18.7587209 L252.100502,39.3877209 L279.326567,39.3883992 L279.326567,42.7968499 L252.100502,42.7967209 L252.100502,62.8447209 L279.326567,62.8449612 L279.326567,66.2534119 L252.100502,66.2527209 L252.100502,85.3557209 L279.326567,85.3565891 L279.326567,88.7650399 L252.100502,88.7647209 L252.100502,107.867721 L279.326567,107.868217 L279.326567,111.276668 L252.100502,111.275721 L252.100502,126.627721 L279.326567,126.627907 L279.326567,130.036358 L252.100502,130.035721 L252.100502,145.386721 L279.326567,145.387597 L279.326567,148.796048 L252.100502,148.795721 L252.100502,164.146721 L279.326567,164.147287 L279.326567,167.555738 L252.100502,167.555721 L252.100502,182.906721 L279.326567,182.906977 L279.326567,186.315427 L252.100502,186.314721 L252.100502,201.665721 L279.326567,201.666667 L279.326567,205.075117 L252.100502,205.074721 L252.100502,219.487721 L307.230047,219.488372 L307.230047,18.7596899 Z M248.663502,201.665721 L248.663502,186.314721 L230.978502,186.314721 L230.978502,201.665721 L248.663502,201.665721 Z M164.175502,186.314721 L146.490502,186.314721 L146.490502,201.665721 L164.175502,201.665721 L164.175502,186.314721 Z M143.053502,186.314721 L125.368502,186.314721 L125.368502,201.665721 L143.053502,201.665721 L143.053502,186.314721 Z M121.931502,186.314721 L104.246502,186.314721 L104.246502,201.665721 L121.931502,201.665721 L121.931502,186.314721 Z M100.809502,186.314721 L83.1245023,186.314721 L83.1245023,201.665721 L100.809502,201.665721 L100.809502,186.314721 Z M79.6875023,186.314721 L62.0025023,186.314721 L62.0025023,201.665721 L79.6875023,201.665721 L79.6875023,186.314721 Z M58.5655023,186.314721 L40.1605023,186.314721 L40.1605023,201.665721 L58.5655023,201.665721 L58.5655023,186.314721 Z M36.7235023,186.314721 L17.2816901,186.315427 L17.2816901,201.666667 L36.7235023,201.665721 L36.7235023,186.314721 Z M185.297502,186.314721 L167.612502,186.314721 L167.612502,201.665721 L185.297502,201.665721 L185.297502,186.314721 Z M206.419502,186.314721 L188.734502,186.314721 L188.734502,201.665721 L206.419502,201.665721 L206.419502,186.314721 Z M227.541502,186.314721 L209.856502,186.314721 L209.856502,201.665721 L227.541502,201.665721 L227.541502,186.314721 Z M248.663502,182.906721 L248.663502,167.555721 L230.978502,167.555721 L230.978502,182.906721 L248.663502,182.906721 Z M164.175502,167.555721 L146.490502,167.555721 L146.490502,182.906721 L164.175502,182.906721 L164.175502,167.555721 Z M143.053502,167.555721 L125.368502,167.555721 L125.368502,182.906721 L143.053502,182.906721 L143.053502,167.555721 Z M121.931502,167.555721 L104.246502,167.555721 L104.246502,182.906721 L121.931502,182.906721 L121.931502,167.555721 Z M100.809502,167.555721 L83.1245023,167.555721 L83.1245023,182.906721 L100.809502,182.906721 L100.809502,167.555721 Z M79.6875023,167.555721 L62.0025023,167.555721 L62.0025023,182.906721 L79.6875023,182.906721 L79.6875023,167.555721 Z M58.5655023,167.555721 L40.1605023,167.555721 L40.1605023,182.906721 L58.5655023,182.906721 L58.5655023,167.555721 Z M36.7235023,167.555721 L17.2816901,167.555738 L17.2816901,182.906977 L36.7235023,182.906721 L36.7235023,167.555721 Z M185.297502,167.555721 L167.612502,167.555721 L167.612502,182.906721 L185.297502,182.906721 L185.297502,167.555721 Z M206.419502,167.555721 L188.734502,167.555721 L188.734502,182.906721 L206.419502,182.906721 L206.419502,167.555721 Z M227.541502,167.555721 L209.856502,167.555721 L209.856502,182.906721 L227.541502,182.906721 L227.541502,167.555721 Z M248.663502,164.146721 L248.663502,148.795721 L230.978502,148.795721 L230.978502,164.146721 L248.663502,164.146721 Z M227.541502,148.795721 L209.856502,148.795721 L209.856502,164.146721 L227.541502,164.146721 L227.541502,148.795721 Z M206.419502,148.795721 L188.734502,148.795721 L188.734502,164.146721 L206.419502,164.146721 L206.419502,148.795721 Z M185.297502,148.795721 L167.612502,148.795721 L167.612502,164.146721 L185.297502,164.146721 L185.297502,148.795721 Z M164.175502,148.795721 L146.490502,148.795721 L146.490502,164.146721 L164.175502,164.146721 L164.175502,148.795721 Z M143.053502,148.795721 L125.368502,148.795721 L125.368502,164.146721 L143.053502,164.146721 L143.053502,148.795721 Z M121.931502,148.795721 L104.246502,148.795721 L104.246502,164.146721 L121.931502,164.146721 L121.931502,148.795721 Z M100.809502,148.795721 L83.1245023,148.795721 L83.1245023,164.146721 L100.809502,164.146721 L100.809502,148.795721 Z M79.6875023,148.795721 L62.0025023,148.795721 L62.0025023,164.146721 L79.6875023,164.146721 L79.6875023,148.795721 Z M58.5655023,148.795721 L40.1605023,148.795721 L40.1605023,164.146721 L58.5655023,164.146721 L58.5655023,148.795721 Z M36.7235023,148.795721 L17.2816901,148.796048 L17.2816901,164.147287 L36.7235023,164.146721 L36.7235023,148.795721 Z M248.663502,145.386721 L248.663502,130.035721 L230.978502,130.035721 L230.978502,145.386721 L248.663502,145.386721 Z M58.5655023,130.035721 L40.1605023,130.035721 L40.1605023,145.386721 L58.5655023,145.386721 L58.5655023,130.035721 Z M79.6875023,130.035721 L62.0025023,130.035721 L62.0025023,145.386721 L79.6875023,145.386721 L79.6875023,130.035721 Z M100.809502,130.035721 L83.1245023,130.035721 L83.1245023,145.386721 L100.809502,145.386721 L100.809502,130.035721 Z M121.931502,130.035721 L104.246502,130.035721 L104.246502,145.386721 L121.931502,145.386721 L121.931502,130.035721 Z M143.053502,130.035721 L125.368502,130.035721 L125.368502,145.386721 L143.053502,145.386721 L143.053502,130.035721 Z M164.175502,130.035721 L146.490502,130.035721 L146.490502,145.386721 L164.175502,145.386721 L164.175502,130.035721 Z M185.297502,130.035721 L167.612502,130.035721 L167.612502,145.386721 L185.297502,145.386721 L185.297502,130.035721 Z M206.419502,130.035721 L188.734502,130.035721 L188.734502,145.386721 L206.419502,145.386721 L206.419502,130.035721 Z M227.541502,130.035721 L209.856502,130.035721 L209.856502,145.386721 L227.541502,145.386721 L227.541502,130.035721 Z M36.7235023,130.035721 L17.2816901,130.036358 L17.2816901,145.387597 L36.7235023,145.386721 L36.7235023,130.035721 Z M248.663502,126.627721 L248.663502,111.275721 L230.978502,111.275721 L230.978502,126.627721 L248.663502,126.627721 Z M58.5655023,111.275721 L40.1605023,111.275721 L40.1605023,126.627721 L58.5655023,126.627721 L58.5655023,111.275721 Z M36.7235023,111.275721 L17.2816901,111.276668 L17.2816901,126.627907 L36.7235023,126.627721 L36.7235023,111.275721 Z M79.6875023,111.275721 L62.0025023,111.275721 L62.0025023,126.627721 L79.6875023,126.627721 L79.6875023,111.275721 Z M100.809502,111.275721 L83.1245023,111.275721 L83.1245023,126.627721 L100.809502,126.627721 L100.809502,111.275721 Z M121.931502,111.275721 L104.246502,111.275721 L104.246502,126.627721 L121.931502,126.627721 L121.931502,111.275721 Z M143.053502,111.275721 L125.368502,111.275721 L125.368502,126.627721 L143.053502,126.627721 L143.053502,111.275721 Z M164.175502,111.275721 L146.490502,111.275721 L146.490502,126.627721 L164.175502,126.627721 L164.175502,111.275721 Z M185.297502,111.275721 L167.612502,111.275721 L167.612502,126.627721 L185.297502,126.627721 L185.297502,111.275721 Z M206.419502,111.275721 L188.734502,111.275721 L188.734502,126.627721 L206.419502,126.627721 L206.419502,111.275721 Z M227.541502,111.275721 L209.856502,111.275721 L209.856502,126.627721 L227.541502,126.627721 L227.541502,111.275721 Z M248.663502,107.867721 L248.663502,88.7647209 L230.978502,88.7647209 L230.978502,107.867721 L248.663502,107.867721 Z M227.541502,88.7647209 L209.856502,88.7647209 L209.856502,107.867721 L227.541502,107.867721 L227.541502,88.7647209 Z M206.419502,88.7647209 L188.734502,88.7647209 L188.734502,107.867721 L206.419502,107.867721 L206.419502,88.7647209 Z M185.297502,88.7647209 L167.612502,88.7647209 L167.612502,107.867721 L185.297502,107.867721 L185.297502,88.7647209 Z M164.175502,88.7647209 L146.490502,88.7647209 L146.490502,107.867721 L164.175502,107.867721 L164.175502,88.7647209 Z M143.053502,88.7647209 L125.368502,88.7647209 L125.368502,107.867721 L143.053502,107.867721 L143.053502,88.7647209 Z M121.931502,88.7647209 L104.246502,88.7647209 L104.246502,107.867721 L121.931502,107.867721 L121.931502,88.7647209 Z M100.809502,88.7647209 L83.1245023,88.7647209 L83.1245023,107.867721 L100.809502,107.867721 L100.809502,88.7647209 Z M79.6875023,88.7647209 L62.0025023,88.7647209 L62.0025023,107.867721 L79.6875023,107.867721 L79.6875023,88.7647209 Z M58.5655023,88.7647209 L40.1605023,88.7647209 L40.1605023,107.867721 L58.5655023,107.867721 L58.5655023,88.7647209 Z M36.7235023,88.7647209 L17.2816901,88.7650399 L17.2816901,107.868217 L36.7235023,107.867721 L36.7235023,88.7647209 Z M248.663502,85.3557209 L248.663502,66.2527209 L230.978502,66.2527209 L230.978502,85.3557209 L248.663502,85.3557209 Z M227.541502,66.2527209 L209.856502,66.2527209 L209.856502,85.3557209 L227.541502,85.3557209 L227.541502,66.2527209 Z M100.809502,66.2527209 L83.1245023,66.2527209 L83.1245023,85.3557209 L100.809502,85.3557209 L100.809502,66.2527209 Z M79.6875023,66.2527209 L62.0025023,66.2527209 L62.0025023,85.3557209 L79.6875023,85.3557209 L79.6875023,66.2527209 Z M58.5655023,66.2527209 L40.1605023,66.2527209 L40.1605023,85.3557209 L58.5655023,85.3557209 L58.5655023,66.2527209 Z M36.7235023,66.2527209 L17.2816901,66.2534119 L17.2816901,85.3565891 L36.7235023,85.3557209 L36.7235023,66.2527209 Z M121.931502,66.2527209 L104.246502,66.2527209 L104.246502,85.3557209 L121.931502,85.3557209 L121.931502,66.2527209 Z M143.053502,66.2527209 L125.368502,66.2527209 L125.368502,85.3557209 L143.053502,85.3557209 L143.053502,66.2527209 Z M164.175502,66.2527209 L146.490502,66.2527209 L146.490502,85.3557209 L164.175502,85.3557209 L164.175502,66.2527209 Z M185.297502,66.2527209 L167.612502,66.2527209 L167.612502,85.3557209 L185.297502,85.3557209 L185.297502,66.2527209 Z M206.419502,66.2527209 L188.734502,66.2527209 L188.734502,85.3557209 L206.419502,85.3557209 L206.419502,66.2527209 Z M248.663502,62.8447209 L248.663502,42.7967209 L230.978502,42.7967209 L230.978502,62.8447209 L248.663502,62.8447209 Z M227.541502,42.7967209 L209.856502,42.7967209 L209.856502,62.8447209 L227.541502,62.8447209 L227.541502,42.7967209 Z M206.419502,42.7967209 L188.734502,42.7967209 L188.734502,62.8447209 L206.419502,62.8447209 L206.419502,42.7967209 Z M185.297502,42.7967209 L167.612502,42.7967209 L167.612502,62.8447209 L185.297502,62.8447209 L185.297502,42.7967209 Z M164.175502,42.7967209 L146.490502,42.7967209 L146.490502,62.8447209 L164.175502,62.8447209 L164.175502,42.7967209 Z M143.053502,42.7967209 L125.368502,42.7967209 L125.368502,62.8447209 L143.053502,62.8447209 L143.053502,42.7967209 Z M121.931502,42.7967209 L104.246502,42.7967209 L104.246502,62.8447209 L121.931502,62.8447209 L121.931502,42.7967209 Z M100.809502,42.7967209 L83.1245023,42.7967209 L83.1245023,62.8447209 L100.809502,62.8447209 L100.809502,42.7967209 Z M79.6875023,42.7967209 L62.0025023,42.7967209 L62.0025023,62.8447209 L79.6875023,62.8447209 L79.6875023,42.7967209 Z M58.5655023,42.7967209 L40.1605023,42.7967209 L40.1605023,62.8447209 L58.5655023,62.8447209 L58.5655023,42.7967209 Z M36.7235023,42.7967209 L17.2816901,42.7968499 L17.2816901,62.8449612 L36.7235023,62.8447209 L36.7235023,42.7967209 Z M248.663502,39.3877209 L248.663502,18.7587209 L230.978502,18.7587209 L230.978502,39.3877209 L248.663502,39.3877209 Z M227.541502,18.7587209 L209.856502,18.7587209 L209.856502,39.3877209 L227.541502,39.3877209 L227.541502,18.7587209 Z M206.419502,18.7587209 L188.734502,18.7587209 L188.734502,39.3877209 L206.419502,39.3877209 L206.419502,18.7587209 Z M185.297502,18.7587209 L167.612502,18.7587209 L167.612502,39.3877209 L185.297502,39.3877209 L185.297502,18.7587209 Z M164.175502,18.7587209 L146.490502,18.7587209 L146.490502,39.3877209 L164.175502,39.3877209 L164.175502,18.7587209 Z M143.053502,18.7587209 L125.368502,18.7587209 L125.368502,39.3877209 L143.053502,39.3877209 L143.053502,18.7587209 Z M121.931502,18.7587209 L104.246502,18.7587209 L104.246502,39.3877209 L121.931502,39.3877209 L121.931502,18.7587209 Z M100.809502,18.7587209 L83.1245023,18.7587209 L83.1245023,39.3877209 L100.809502,39.3877209 L100.809502,18.7587209 Z M79.6875023,18.7587209 L62.0025023,18.7587209 L62.0025023,39.3877209 L79.6875023,39.3877209 L79.6875023,18.7587209 Z M58.5655023,18.7587209 L40.1605023,18.7587209 L40.1605023,39.3877209 L58.5655023,39.3877209 L58.5655023,18.7587209 Z M36.7235023,18.7587209 L17.2816901,18.7596899 L17.2816901,39.3883992 L36.7235023,39.3877209 L36.7235023,18.7587209 Z" id="形状结合" fill="#35C8D3" fill-rule="nonzero"></path>
                    <g id="编组-20" transform="translate(30.723005, 67.534884)" fill="#FFFFFF">
                        <path d="M118.116977,87.3234384 L202.871042,3.64074365 L298.585996,96.2855126 C299.92277,97.5794081 299.936819,99.6910038 298.617375,101.001894 C297.367375,102.243789 295.368992,102.321517 294.02548,101.226098 L293.807865,101.032665 L202.918648,13.0584117 L118.661833,96.2528933 L66.7377416,55.9455642 L17.1341295,94.4046137 C15.6607291,95.5469565 13.5219646,95.3017096 12.3570653,93.8568392 C11.1921659,92.4119688 11.4422555,90.3146181 12.915656,89.1722752 L66.7410703,47.4408643 L118.116977,87.3234384 Z" id="路径-354" fill-rule="nonzero"></path>
                        <ellipse id="椭圆形" cx="9.35250029" cy="95.8828596" rx="9.35250029" ry="9.17140396"></ellipse>
                        <ellipse id="椭圆形备份-19" cx="63.7670474" cy="50.8596038" rx="9.35250029" ry="9.17140396"></ellipse>
                        <ellipse id="椭圆形备份-20" cx="116.48114" cy="90.8802756" rx="9.35250029" ry="9.17140396"></ellipse>
                        <ellipse id="椭圆形备份-21" cx="203.204325" cy="9.17140396" rx="9.35250029" ry="9.17140396"></ellipse>
                    </g>
                </g>
                <g id="柱状图" transform="translate(903.000000, 265.000000)">
                    <rect id="蒙版" fill="#B3CFFF" x="0" y="0" width="352" height="259"></rect>
                    <polygon id="路径-24" fill="#93BBFE" points="229.480663 210.687078 156.269058 177.61766 145.856354 210.687078 89.0271984 171.196931 66.121547 210.687078 21.912354 173.197808 41.8295964 151.62336 73.5883101 177.61766 91.6313935 142.8099 149.809941 176.748489 168.389293 142.8099 294.495186 199.322506"></polygon>
                    <g id="编组-19" transform="translate(229.480663, 41.591241)">
                        <polygon id="路径-349" fill="#88D2F7" points="-2.48689958e-14 8.22363097 -2.48689958e-14 169.126441 37.4560205 184.643261 37.4560205 18.4262545 26.8681124 7.01703031"></polygon>
                        <polygon id="路径-350" fill="#D3F6FF" points="67.4289952 8.22363097 67.4289952 167.08935 37.4560205 184.643261 37.4560205 14.1292734 40.502292 2.98786752"></polygon>
                        <polygon id="路径-348" fill="#AFF0FF" points="4.54747351e-13 8.22363097 31.2667823 -1.725398e-14 67.4289952 8.22363097 37.4560205 18.4262545"></polygon>
                    </g>
                    <g id="编组-19备份-3" transform="translate(145.856354, 73.729927)">
                        <polygon id="路径-349" fill="#88D2F7" points="-2.48689958e-14 8.23463616 -2.48689958e-14 137.400412 39.2436944 152.504575 37.4560205 18.4509133 26.8681124 7.02642078"></polygon>
                        <polygon id="路径-350" fill="#D3F6FF" points="67.4289952 8.23463616 67.4289952 135.217598 37.4560205 152.795 37.4560205 14.1481817 40.502292 2.99186601"></polygon>
                        <polygon id="路径-348" fill="#AFF0FF" points="4.54747351e-13 8.23463616 31.2667823 -1.72758814e-14 67.4289952 8.23463616 37.4560205 18.4509133"></polygon>
                    </g>
                    <g id="编组-19备份-4" transform="translate(66.121547, 113.430657)">
                        <polygon id="路径-349" fill="#88D2F7" points="-2.48689958e-14 8.1676879 -2.48689958e-14 97.7169119 38.5685785 112.565007 37.4560205 18.3009058 26.8681124 6.96929541"></polygon>
                        <polygon id="路径-350" fill="#D3F6FF" points="67.4289952 8.1676879 67.4289952 95.1305109 37.4560205 112.565007 37.4560205 14.0331559 40.502292 2.9675419"></polygon>
                        <polygon id="路径-348" fill="#AFF0FF" points="4.54747351e-13 8.1676879 31.2667823 -1.7142648e-14 67.4289952 8.1676879 37.4560205 18.3009058"></polygon>
                    </g>
                </g>
                <g id="book-pro" transform="translate(200.000000, 104.000000)">
                    <g id="矩形" transform="translate(0.000000, 350.507042)">
                        <mask id="mask-2" fill="white">
                            <use xlink:href="#path-1"></use>
                        </mask>
                        <use id="蒙版" fill="#FBFCFF" xlink:href="#path-1"></use>
                        <rect fill="#D3D4EC" mask="url(#mask-2)" x="-10.9081627" y="179.014798" width="934.985373" height="27.7048797"></rect>
                        <path d="M393.791958,173.000431 C423.961906,173.276029 481.638777,173.139671 510.688713,173.000431 C519.697797,173.103958 526.001962,181.462691 510.688713,182.253032 C481.160929,182.180193 423.991261,182.44187 393.791958,182.253032 C386.582146,181.795145 379.959144,175.850594 393.791958,173.000431 Z" id="路径-257" fill="#D3D4EC" mask="url(#mask-2)"></path>
                    </g>
                    <path d="M384.798337,0 L159.079692,0 C145.730427,0.754038761 139.055794,5.64793112 139.055794,14.6816771 C139.055794,23.715423 139.055794,145.816836 139.055794,380.985915 L760.944206,380.985915 L760.944206,14.6816771 C756.2722,4.89389236 750.074237,0 742.350318,0 C734.626398,0 615.442405,0 384.798337,0 Z" id="路径-254备份" fill="#CDCDE0"></path>
                    <path d="M384.798337,3.80985915 L159.079692,3.80985915 C148.441718,4.55635753 143.122731,9.40131096 143.122731,18.3447195 C143.122731,27.288128 141.767085,148.168527 139.055794,380.985915 L760.944206,380.985915 L756.352852,18.3447195 C754.741749,8.65481259 750.074237,3.80985915 742.350318,3.80985915 C734.626398,3.80985915 615.442405,3.80985915 384.798337,3.80985915 Z" id="路径-254" fill="#FBFCFF"></path>
                    <path d="M420.496277,375.055474 C421.707622,375.055474 422.670061,374.824418 423.366999,374.393113 C424.180094,373.869386 424.594938,373.068391 424.594938,371.990129 C424.594938,371.25075 424.362625,370.665408 423.931187,370.203295 C423.499749,369.741183 422.902373,369.433108 422.122466,369.309878 C422.719842,369.125033 423.201061,368.832362 423.566124,368.431865 C423.914593,367.985156 424.097125,367.446025 424.097125,366.829875 C424.097125,365.967266 423.781843,365.289501 423.15128,364.796581 C422.504123,364.303662 421.624653,364.057202 420.529464,364.057202 L415.236052,364.057202 L415.236052,375.055474 L420.496277,375.055474 Z M420.197589,368.86317 L416.596741,368.86317 L416.596741,365.12006 L420.214183,365.12006 C421.043871,365.12006 421.674434,365.258694 422.105872,365.566769 C422.53731,365.874843 422.753029,366.336956 422.753029,366.953105 C422.753029,367.584659 422.520717,368.062175 422.089279,368.385654 C421.657841,368.693728 421.027277,368.86317 420.197589,368.86317 Z M420.38012,373.992616 L416.596741,373.992616 L416.596741,369.910624 L420.38012,369.910624 C421.292778,369.910624 421.989716,370.064662 422.470935,370.403544 C422.968748,370.742426 423.234249,371.266154 423.234249,371.974726 C423.234249,372.683298 422.935561,373.222429 422.354779,373.561311 C421.856966,373.838579 421.209809,373.992616 420.38012,373.992616 Z M430.137257,375.271127 C431.414977,375.271127 432.443791,374.855226 433.223698,374.023424 C433.93723,373.253236 434.302293,372.267397 434.302293,371.081309 C434.302293,369.879817 433.93723,368.893977 433.207105,368.108386 C432.443791,367.276584 431.414977,366.876087 430.137257,366.876087 C428.842943,366.876087 427.830723,367.276584 427.06741,368.108386 C426.337284,368.893977 425.972221,369.879817 425.972221,371.081309 C425.972221,372.267397 426.337284,373.253236 427.06741,374.023424 C427.830723,374.855226 428.842943,375.271127 430.137257,375.271127 Z M430.137257,374.239076 C429.2246,374.239076 428.511068,373.915597 428.013255,373.26864 C427.548629,372.683298 427.33291,371.959322 427.33291,371.081309 C427.33291,370.187891 427.548629,369.463916 428.013255,368.878573 C428.511068,368.231616 429.2246,367.908138 430.137257,367.908138 C431.033321,367.908138 431.746853,368.231616 432.277853,368.878573 C432.725885,369.463916 432.958198,370.187891 432.958198,371.081309 C432.958198,371.943918 432.725885,372.683298 432.277853,373.26864 C431.746853,373.915597 431.033321,374.239076 430.137257,374.239076 Z M439.861206,375.271127 C441.138927,375.271127 442.16774,374.855226 442.947648,374.023424 C443.66118,373.253236 444.026243,372.267397 444.026243,371.081309 C444.026243,369.879817 443.66118,368.893977 442.931054,368.108386 C442.16774,367.276584 441.138927,366.876087 439.861206,366.876087 C438.566892,366.876087 437.554672,367.276584 436.791359,368.108386 C436.061233,368.893977 435.69617,369.879817 435.69617,371.081309 C435.69617,372.267397 436.061233,373.253236 436.791359,374.023424 C437.554672,374.855226 438.566892,375.271127 439.861206,375.271127 Z M439.861206,374.239076 C438.948549,374.239076 438.235017,373.915597 437.737204,373.26864 C437.272578,372.683298 437.056859,371.959322 437.056859,371.081309 C437.056859,370.187891 437.272578,369.463916 437.737204,368.878573 C438.235017,368.231616 438.948549,367.908138 439.861206,367.908138 C440.75727,367.908138 441.470802,368.231616 442.001803,368.878573 C442.449835,369.463916 442.682147,370.187891 442.682147,371.081309 C442.682147,371.943918 442.449835,372.683298 442.001803,373.26864 C441.470802,373.915597 440.75727,374.239076 439.861206,374.239076 Z M447.079496,375.055474 L447.079496,372.236589 L448.440186,371.096712 L451.792127,375.055474 L453.501286,375.055474 L449.352843,370.295718 L453.136223,367.091739 L451.377283,367.091739 L447.079496,370.788637 L447.079496,363.841549 L445.751995,363.841549 L445.751995,375.055474 L447.079496,375.055474 Z M461.582452,375.055474 L461.582452,370.557581 L465.05055,370.557581 C467.771928,370.557581 469.149211,369.463916 469.149211,367.291988 C469.149211,365.135464 467.788522,364.057202 465.067143,364.057202 L460.221762,364.057202 L460.221762,375.055474 L461.582452,375.055474 Z M464.984174,369.463916 L461.582452,369.463916 L461.582452,365.150867 L464.984174,365.150867 C465.930019,365.150867 466.626958,365.320309 467.091583,365.689998 C467.556209,366.013477 467.788522,366.552608 467.788522,367.291988 C467.788522,368.031367 467.556209,368.570498 467.108177,368.924785 C466.643551,369.279071 465.946613,369.463916 464.984174,369.463916 Z M472.019933,375.055474 L472.019933,370.834849 C472.019933,370.095469 472.235652,369.463916 472.700278,368.940188 C473.148309,368.385654 473.712498,368.12379 474.376248,368.12379 C474.791093,368.12379 475.222531,368.170001 475.653969,368.293231 L475.653969,367.060932 C475.338687,366.937702 474.940437,366.876087 474.475811,366.876087 C473.878435,366.876087 473.364028,367.045528 472.915997,367.38441 C472.550934,367.646274 472.252246,368.015964 472.019933,368.478076 L472.019933,367.091739 L470.709025,367.091739 L470.709025,375.055474 L472.019933,375.055474 Z M480.598912,375.271127 C481.876632,375.271127 482.905446,374.855226 483.685353,374.023424 C484.398886,373.253236 484.763948,372.267397 484.763948,371.081309 C484.763948,369.879817 484.398886,368.893977 483.66876,368.108386 C482.905446,367.276584 481.876632,366.876087 480.598912,366.876087 C479.304598,366.876087 478.292378,367.276584 477.529065,368.108386 C476.798939,368.893977 476.433876,369.879817 476.433876,371.081309 C476.433876,372.267397 476.798939,373.253236 477.529065,374.023424 C478.292378,374.855226 479.304598,375.271127 480.598912,375.271127 Z M480.598912,374.239076 C479.686255,374.239076 478.972723,373.915597 478.47491,373.26864 C478.010284,372.683298 477.794565,371.959322 477.794565,371.081309 C477.794565,370.187891 478.010284,369.463916 478.47491,368.878573 C478.972723,368.231616 479.686255,367.908138 480.598912,367.908138 C481.494976,367.908138 482.208508,368.231616 482.739509,368.878573 C483.18754,369.463916 483.419853,370.187891 483.419853,371.081309 C483.419853,371.943918 483.18754,372.683298 482.739509,373.26864 C482.208508,373.915597 481.494976,374.239076 480.598912,374.239076 Z" id="BookPro" fill="#CDCDE0" fill-rule="nonzero"></path>
                    <g id="形状结合" transform="translate(164.163090, 30.478873)">
                        <g id="蒙版">
                            <mask id="mask-4" fill="white">
                                <use xlink:href="#path-3"></use>
                            </mask>
                            <use fill="#382346" xlink:href="#path-3"></use>
                        </g>
                        <path d="M523.769725,76.2924028 L523.849292,76.5961 L531.625354,110.342282 C532.269658,113.138401 530.491895,115.919838 527.654608,116.554793 C524.918653,117.167072 522.196553,115.559876 521.427899,112.937187 L521.350631,112.64166 L517.287125,95.0081344 C489.521406,154.061857 463.557206,202.389341 439.373435,240.00989 C419.889325,270.319591 402.80361,269.366591 388.829074,241.335512 L387.55061,238.703321 L387.315013,238.208178 C383.883222,230.971216 381.451807,224.738686 374.801938,206.127053 L366.908675,183.944427 C358.558723,160.665334 352.355827,144.862738 344.628899,127.958916 C336.681427,110.572623 329.130133,100.412048 322.238596,96.666368 C316.955722,93.7950265 311.802564,94.7289421 305.337207,99.8613121 C298.609406,105.202018 291.260036,114.59162 282.317365,128.865923 L280.839541,131.245101 C277.652022,136.418026 274.292639,142.129366 270.025265,149.580282 L255.270056,175.469361 L253.587023,178.374946 C249.719898,185.02668 246.256056,190.808329 242.851349,196.258825 C221.737542,230.059301 199.102043,241.265104 175.256532,231.539576 C157.480118,224.289364 141.150068,206.948815 120.066259,176.616982 L119.273376,175.473443 C110.02628,162.103611 101.907893,159.90499 92.0565988,167.16851 C80.277474,175.85345 66.9229149,197.377838 52.5746313,231.490314 C51.2748299,234.580541 47.6791267,236.047255 44.5434035,234.766313 C41.4076803,233.485371 39.9193717,229.941838 41.2191731,226.851612 L42.3119599,224.272639 C57.0450542,189.760804 70.9917469,167.570729 84.6927019,157.468792 C100.488093,145.822594 116.185086,149.902427 129.013384,168.053761 L130.951239,170.837985 C150.348979,198.597199 165.311292,214.372876 179.957194,220.34629 C197.368573,227.44762 214.111839,219.158793 232.383445,189.908315 L233.816575,187.59986 C236.935323,182.545689 240.156499,177.128454 243.749545,170.925276 L259.323164,143.621166 C263.84936,135.718234 267.380307,129.724896 270.781584,124.230538 L271.224565,123.516596 C281.128794,107.590937 289.365845,96.9844805 297.626087,90.4272833 C318.439828,73.9047877 337.78676,84.1418585 355.306229,121.8328 L355.836562,122.983353 C364.386838,141.688372 371.073304,158.977639 380.641486,185.9124 L385.232885,198.841109 C393.114324,220.964436 395.377711,226.740988 399.215905,234.674213 L399.489546,235.238028 C404.476133,245.481639 408.686654,250.17124 411.767156,250.400322 C415.304121,250.66335 421.163243,245.70149 428.989425,233.526992 C453.028988,196.130777 478.950858,147.82815 506.733488,88.6388331 L486.472563,97.4656164 C483.906455,98.5834191 480.922201,97.5202936 479.657626,95.0914631 L479.524303,94.8160143 C478.390043,92.2871387 479.46882,89.3461841 481.93341,88.0999561 L482.212914,87.9685676 L516.582106,72.9972646 C519.516122,71.7192 522.88984,73.301825 523.769725,76.2924028 Z" fill="#71FFD2" fill-rule="nonzero"></path>
                    </g>
                    <polygon id="路径-256" fill="#CDCDE0" points="161.983443 398.130282 740.228719 398.130282 795.708155 460.992958 104.291845 460.992958"></polygon>
                    <g id="路径-258" transform="translate(312.875536, 470.517606)">
                        <mask id="mask-6" fill="white">
                            <use xlink:href="#path-5"></use>
                        </mask>
                        <use id="蒙版" fill="#CDCDE0" xlink:href="#path-5"></use>
                        <polygon fill="#ACACAC" mask="url(#mask-6)" points="-1.123554 36.167762 18.3225573 3.00189599 253.493114 3.00189599 277.255118 38.0553309 257.051398 -2.73156291 12.7252574 -2.73156291"></polygon>
                    </g>
                    <polygon id="路径-259" fill="#FBFCFF" points="167.654957 403.84507 735.61672 403.84507 782.188841 457.183099 117.811159 457.183099"></polygon>
                    <polygon id="路径-19" fill="#CDCDE0" fill-rule="nonzero" points="747.297604 412.388144 747.297604 415.79066 155.113378 415.79066 155.113378 412.388144"></polygon>
                    <polygon id="路径-19备份" fill="#CDCDE0" fill-rule="nonzero" points="755.217391 422.406663 755.217391 425.809179 144.782609 425.809179 144.782609 422.406663"></polygon>
                    <polygon id="路径-19备份-2" fill="#CDCDE0" fill-rule="nonzero" points="761.478261 431.654526 761.478261 435.057042 138.521739 435.057042 138.521739 431.654526"></polygon>
                    <polygon id="路径-19备份-3" fill="#CDCDE0" fill-rule="nonzero" points="774 443.98501 774 447.387526 122.869565 447.387526 122.869565 443.98501"></polygon>
                </g>
                <circle id="椭圆形" fill="#6871FF" cx="1037.5" cy="129.5" r="13.5"></circle>
                <circle id="椭圆形" fill="#6871FF" cx="1012" cy="155" r="5"></circle>
                <g id="消息" transform="translate(923.000000, 0.000000)">
                    <path d="M0.0637169247,63.3167797 L0.0637169247,31.2383558 C-0.528381463,21.9848954 3.00613764,17.3581652 10.6672742,17.3581652 C18.3284108,17.3581652 58.6177378,17.3581652 131.535255,17.3581652 C138.243809,17.3581652 141.598086,20.6818263 141.598086,27.3291486 C141.598086,33.9764708 141.598086,55.0857694 141.598086,90.6570444 C143.117132,95.9511795 138.365995,98.598247 127.344673,98.598247 C116.323352,98.598247 81.778078,98.598247 23.7088525,98.598247 L0.0637169247,124.952214 L0.0637169247,63.3167797 Z" id="路径-261" fill="#85D5A0"></path>
                    <ellipse id="椭圆形" fill="#F06D6D" cx="139.965299" cy="22.3063827" rx="21.9181149" ry="22.2139651"></ellipse>
                    <path d="M141.942857,34.0726347 L141.942857,10.9555079 L139.968,10.9555079 C139.227429,11.829685 138.363429,12.6067312 137.314286,13.3190237 C136.265143,13.9665622 135.216,14.4198392 134.228571,14.7112316 L134.228571,17.3661397 C136.296,16.7186011 138.024,15.6825394 139.412571,14.1932007 L139.412571,34.0726347 L141.942857,34.0726347 Z" id="1" fill="#FFFFFF" fill-rule="nonzero"></path>
                    <ellipse id="椭圆形" fill="#FFFFFF" cx="35.4327515" cy="61.2973283" rx="8.43004418" ry="8.54383271"></ellipse>
                    <ellipse id="椭圆形备份-10" fill="#FFFFFF" cx="69.1529282" cy="61.2973283" rx="8.43004418" ry="8.54383271"></ellipse>
                    <ellipse id="椭圆形备份-11" fill="#FFFFFF" cx="102.873105" cy="61.2973283" rx="8.43004418" ry="8.54383271"></ellipse>
                </g>
                <g id="路径-21" transform="translate(7.000000, 409.000000)">
                    <mask id="mask-8" fill="white">
                        <use xlink:href="#path-7"></use>
                    </mask>
                    <use id="蒙版" fill="#F4EDFF" xlink:href="#path-7"></use>
                    <path d="M7.65117787,87.0814346 C10.2250624,72.4598792 17.9738066,61.9728461 30.8974106,55.6203356 C33.7062455,27.2383357 46.5881435,11.7440097 69.5431047,9.13735764 C92.4980659,6.53070562 108.781914,16.6120587 118.394649,39.381417 L125.954914,15.7560122 L58.7248724,-11.0185185 L4.56184943,37.0102376 L-13.4425012,73.564222 L-13.8857143,87.0814346 L7.65117787,87.0814346 Z" fill="#F0E7FF" mask="url(#mask-8)"></path>
                </g>
                <g id="编组-19备份" transform="translate(196.000000, 441.000000)">
                    <polygon id="路径-349" fill="#FF7829" points="-2.48689958e-14 6.17698531 -2.48689958e-14 127.035314 28.5516571 138.284066 26.633906 13.8404439 19.1051471 5.27067585"></polygon>
                    <polygon id="路径-350" fill="#FFBC17" points="47.9468319 6.17698531 47.9468319 125.505202 26.633906 138.690405 26.633906 10.6128685 28.8000226 2.24426581"></polygon>
                    <polygon id="路径-348" fill="#F98B0C" points="4.54747351e-13 6.17698531 22.2329156 -1.3180962e-14 47.9468319 6.17698531 26.633906 13.8404439"></polygon>
                </g>
                <g id="编组-19备份-2" transform="translate(152.000000, 500.000000)">
                    <polygon id="路径-349" fill="#FF7829" points="0 3.94469608 0 85.4712412 20.2978109 93.3333333 18.7 9.11418098 13.4139638 3.33333333"></polygon>
                    <polygon id="路径-350" fill="#FFBC17" points="34 4.35676711 34 85.9809174 18.7 95 18.7 7.39104692 20.2549993 1.66666667"></polygon>
                    <polygon id="路径-348" fill="#F98B0C" points="0 4.46299652 15.7657784 -8.8817842e-15 34 4.46299652 18.8866035 10"></polygon>
                </g>
                <circle id="椭圆形" fill="#FBFCFF" cx="1142" cy="573" r="19"></circle>
                <circle id="椭圆形" fill="#FBFCFF" cx="1118" cy="603" r="12"></circle>
                <g id="文件页" transform="translate(99.000000, 109.000000)">
                    <polygon id="路径-366" fill="#4F9BFF" points="84.9258786 15.6595007 0 31.0156861 73.5082059 184.634882 157.673267 170.92602"></polygon>
                    <polygon id="路径-362" fill="#FFC78E" points="6.93069307 11.6903387 71.071755 193 187.128713 175.539445 125.868829 5.62135922"></polygon>
                    <path d="M55.3069307,61.8001935 C59.6836026,97.8428958 66.8355557,122.541548 76.76279,135.896149 C91.6536414,155.928052 114.298054,172.226607 157.673267,164.893204 L60.9922545,64.5873386 L55.3069307,61.8001935 Z" id="路径-51" fill="#FFAC57"></path>
                    <polygon id="路径-363" fill="#A2FED2" points="17.4653465 3.88533231 27.7167408 3.74757282 32.990099 15.9769515 23.0841582 16.8640777"></polygon>
                    <polygon id="路径-363备份" fill="#82D7FF" points="31.049505 5.32562128e-14 41.8683344 5.32562128e-14 48.5148515 14.9902913 38.3106845 14.9902913"></polygon>
                    <g id="路径-16" transform="translate(51.979557, 21.548544)">
                        <mask id="mask-10" fill="white">
                            <use xlink:href="#path-9"></use>
                        </mask>
                        <use id="蒙版" fill="#FFFFFF" xlink:href="#path-9"></use>
                        <path d="M63.3861542,8.30834108 C74.531084,9.78867619 83.0852899,14.2404795 89.0487718,21.663751 C93.4058043,27.0873333 71.3802984,64.8371069 75.9228655,73.4317713 C100.266979,15.5559471 121.349775,84.4354266 131.406582,115.237864 L131.575019,85.4459999 L99.4709982,-11.2427184 L63.3861542,8.30834108 Z" fill="#F6F7FF" mask="url(#mask-10)"></path>
                        <path d="M21.5302799,46.2084394 L23.1318588,45.8349622 C34.9637268,43.1212421 42.7481391,42.3737139 46.6164476,43.634522 C51.1198559,45.1023299 50.6122062,48.9788019 45.6935708,54.6258709 L45.3931643,54.9668147 C38.256075,62.9763562 34.1083755,70.5476851 34.4348002,74.6559623 C34.7441684,78.5495717 39.5720865,78.7972681 49.1326704,74.1291808 L54.6048856,71.4775763 C64.4938869,66.7318513 69.7088802,64.5402099 73.5472497,63.6328682 L73.7904142,63.5766847 C79.8697532,62.204851 81.2706577,65.0916438 77.5260872,71.7769838 L77.3205602,72.1387582 C72.4011093,80.6801813 76.4481658,87.236642 89.9079783,92.1132862 C90.3135564,92.2602318 90.5194322,92.6980098 90.3678148,93.0910908 C90.2161974,93.4841717 89.7645012,93.6837039 89.3589231,93.5367583 C75.2976392,88.4421941 70.6127548,81.0946832 75.7324296,71.7870023 L76.3358611,70.718776 C79.3224728,65.3397183 78.5629167,64.0600774 74.1459801,65.0567815 L73.6656726,65.1706052 C69.4295897,66.2211485 63.2271728,68.9598593 50.5752469,75.1267672 L49.8381407,75.4863662 C39.4340829,80.5662914 33.3067876,80.2519304 32.8714288,74.7726434 C32.5113034,70.2402206 36.6301131,62.6088062 43.7288097,54.5138527 L44.2064543,53.9735313 C48.7931594,48.8261381 49.2176218,46.0856473 46.1166428,45.0749369 C42.4624206,43.8839065 34.3411899,44.7378085 21.902606,47.68466 C21.4819988,47.784307 21.0576811,47.5346236 20.9548661,47.1269765 C20.8520511,46.7193294 21.1096726,46.3080864 21.5302799,46.2084394 Z" id="路径-22" fill="#A7A7A7" fill-rule="nonzero" mask="url(#mask-10)"></path>
                    </g>
                    <path d="M117.433458,135.244743 C95.6700416,130.971222 90.372085,128.33217 73.0581551,119.10663 C94.7156438,151.873332 122.920681,166.871797 157.673267,164.102024 C135.786427,155.684301 129.668628,149.636484 117.433458,135.244743 Z" id="路径-365" fill="#D1D3FB"></path>
                </g>
                <circle id="椭圆形" fill="#6871FF" cx="107.5" cy="205.5" r="8.5"></circle>
                <circle id="椭圆形" fill="#6871FF" cx="79.5" cy="190.5" r="13.5"></circle>
                <g id="笔" transform="translate(227.000000, 77.000000)">
                    <mask id="mask-12" fill="white">
                        <use xlink:href="#path-11"></use>
                    </mask>
                    <use id="蒙版" fill="#FFFFFF" xlink:href="#path-11"></use>
                    <path d="M24.155717,109.291919 L122.941364,16.8452276 C130.418651,7.00203919 126.054545,0.776683497 109.849048,-1.83083949 C113.832508,-4.93829506 115.797899,-7.63238733 119.822531,-9.8276245 C125.704174,-5.89158584 133.393726,-1.1042865 142.891188,4.53427351 L36.7750735,126.842747 L24.155717,109.291919 Z" id="路径-14" fill="#D1D3FB" mask="url(#mask-12)"></path>
                    <path d="M94.1807738,9.19880121 C107.846777,13.2556967 115.950679,22.4233705 118.145267,36.3224419 L118.261106,37.0994778 L112.555684,37.9190918 C110.896689,26.1004328 104.579079,18.5888294 93.2575665,15.0070048 L92.5581575,14.7926164 L94.1807738,9.19880121 Z" id="路径-403" fill="#B5B7D8" fill-rule="nonzero" mask="url(#mask-12)"></path>
                    <path d="M9.21367439,90.4981846 C21.4708995,92.8589435 29.5317815,101.625112 33.3963205,116.796691 L-5.78357123,130.280635 L9.21367439,90.4981846 Z" id="路径-404" fill="#B5B7D8" mask="url(#mask-12)"></path>
                    <path d="M1.91287313,107.287682 C10.1628333,111.977313 15.4807687,117.749538 17.8666793,124.604355 L-7.68354646,133.628639 L1.91287313,107.287682 Z" id="路径-405" fill="#3D3D3D" mask="url(#mask-12)"></path>
                </g>
                <g id="书本" transform="translate(944.000000, 172.000000)">
                    <g id="路径-23" transform="translate(0.000000, 35.821560)">
                        <mask id="mask-14" fill="white">
                            <use xlink:href="#path-13"></use>
                        </mask>
                        <use id="蒙版" fill="#FFC78E" xlink:href="#path-13"></use>
                        <path d="M9.30570282,54.6703599 C45.9552341,55.2337872 71.0690305,62.4488328 84.647092,76.3154967 C127.724947,67.6911297 159.389737,72.2739349 179.641462,90.0639122 L218.250565,15.4801779 C218.564088,15.4801779 214.340322,15.4801779 205.579268,15.4801779 C196.818214,15.4801779 132.040279,25.7172667 11.2454633,46.1914441 L9.30570282,54.6703599 Z" fill="#FFAF5E" mask="url(#mask-14)"></path>
                    </g>
                    <path d="M176.918303,35.8215597 C192.933497,36.6068735 205.015103,40.4109472 213.163121,47.2337806 L178.895192,119.924352 C149.18127,103.718031 119.329681,101.016863 89.3404255,111.820848 L169.118123,40.0129167 L176.918303,35.8215597 Z" id="路径-393" fill="#DFE1FF"></path>
                    <path d="M122.440235,37.2351629 C153.966931,23.6440341 178.983306,22.9302503 197.489362,35.0938114 L168.230877,103.809707 C138.88587,93.2316563 112.589053,96.0074393 89.3404255,112.137056 C101.868212,81.4845077 112.901481,56.5172099 122.440235,37.2351629 Z" id="路径-392" fill="#F1F2FF"></path>
                    <path d="M76.7789261,23.4591513 C62.5094945,14.0171321 49.9844113,11.6566272 39.2036763,16.3776369 L0,85.2404594 C40.5110117,82.79595 69.4620466,92.2806354 86.8531047,113.694516 L105.014184,49.7518656 L76.7789261,23.4591513 Z" id="路径-396" fill="#D6D8FE"></path>
                    <path d="M126.957447,35.736712 C115.17259,15.2104304 96.9648592,3.29819308 72.3342539,0 C45.0097631,44.2778066 31.3475177,66.41671 31.3475177,66.41671 C63.5870055,67.2005806 82.6750293,82.4406961 88.6115892,112.137056 C103.300049,82.6173033 116.082001,57.1505219 126.957447,35.736712 Z" id="路径-395" fill="#E7E9FF"></path>
                </g>
            </g>
        </g>
    </g>
</svg>